<svg width="61" height="56" viewBox="0 0 61 56" fill="none" xmlns="http://www.w3.org/2000/svg">
<path d="M13.0703 54.3965H48.0041" stroke="#4A0F4F" stroke-width="1.2069" stroke-linecap="round"/>
<path d="M38.8581 43.9976C39.1882 43.9518 39.4186 43.647 39.3728 43.3169C39.3269 42.9868 39.0221 42.7563 38.692 42.8022L38.8581 43.9976ZM36.3613 54.8654V46.3166H35.1544V54.8654H36.3613ZM36.3613 46.3166C36.3613 45.8241 36.3986 45.3673 36.6725 44.981C36.9342 44.6119 37.505 44.1855 38.8581 43.9976L38.692 42.8022C37.1486 43.0166 36.2108 43.5456 35.688 44.2829C35.1774 45.0029 35.1544 45.8033 35.1544 46.3166H36.3613Z" fill="#4A0F4F"/>
<path d="M23.0013 43.9976C22.6712 43.9518 22.4408 43.647 22.4866 43.3169C22.5325 42.9868 22.8372 42.7563 23.1673 42.8022L23.0013 43.9976ZM25.4981 54.8654V46.3166H26.705V54.8654H25.4981ZM25.4981 46.3166C25.4981 45.8241 25.4608 45.3673 25.1869 44.981C24.9252 44.6119 24.3544 44.1855 23.0013 43.9976L23.1673 42.8022C24.7108 43.0166 25.6486 43.5456 26.1714 44.2829C26.682 45.0029 26.705 45.8033 26.705 46.3166H25.4981Z" fill="#4A0F4F"/>
<rect x="1.60345" y="1.60345" width="57.7931" height="41.7931" rx="4.22414" stroke="#4A0F4F" stroke-width="1.2069"/>
<path d="M34 39L59.5 39.0034" stroke="#4A0F4F" stroke-width="0.2"/>
<path d="M2 39L27 39.0034" stroke="#4A0F4F" stroke-width="0.2"/>
<rect x="5.18103" y="6.18103" width="23.7759" height="28.6034" rx="2.23276" stroke="#4A0F4F" stroke-width="0.362069"/>
<rect x="32.0404" y="6.18103" width="23.7759" height="28.6034" rx="2.23276" stroke="#4A0F4F" stroke-width="0.362069"/>
<path d="M43.4791 22.0397C44.937 22.0397 46.3352 21.4597 47.3661 20.4273C48.397 19.3948 48.9762 17.9946 48.9762 16.5345C48.9762 15.0744 48.397 13.6742 47.3661 12.6417C46.3352 11.6093 44.937 11.0293 43.4791 11.0293C42.0212 11.0293 40.6231 11.6093 39.5922 12.6417C38.5613 13.6742 37.9821 15.0744 37.9821 16.5345C37.9821 17.9946 38.5613 19.3948 39.5922 20.4273C40.6231 21.4597 42.0212 22.0397 43.4791 22.0397ZM41.5165 24.1042C37.2864 24.1042 33.8594 27.5363 33.8594 31.7727C33.8594 32.4781 34.4305 33.0501 35.1349 33.0501H51.8234C52.5277 33.0501 53.0989 32.4781 53.0989 31.7727C53.0989 27.5363 49.6719 24.1042 45.4418 24.1042H41.5165Z" fill="#4A0F4F"/>
<path d="M17.352 22.2082C18.8096 22.2082 20.2075 21.6283 21.2382 20.5961C22.2688 19.5639 22.8478 18.1639 22.8478 16.7042C22.8478 15.2444 22.2688 13.8445 21.2382 12.8123C20.2075 11.7801 18.8096 11.2002 17.352 11.2002C15.8945 11.2002 14.4966 11.7801 13.4659 12.8123C12.4353 13.8445 11.8562 15.2444 11.8562 16.7042C11.8562 18.1639 12.4353 19.5639 13.4659 20.5961C14.4966 21.6283 15.8945 22.2082 17.352 22.2082ZM13.2302 24.5818C10.0529 25.5149 7.73438 28.4561 7.73438 31.9391C7.73438 32.6443 8.30542 33.2162 9.00957 33.2162H25.6945C26.3987 33.2162 26.9697 32.6443 26.9697 31.9391C26.9697 28.4561 24.6512 25.5149 21.4739 24.5818V26.7662C22.6589 27.0715 23.5348 28.1508 23.5348 29.4322V31.1522C23.5348 31.5306 23.2257 31.8402 22.8478 31.8402H22.1609C21.783 31.8402 21.4739 31.5306 21.4739 31.1522C21.4739 30.7738 21.783 30.4642 22.1609 30.4642V29.4322C22.1609 28.6711 21.5469 28.0562 20.7869 28.0562C20.027 28.0562 19.413 28.6711 19.413 29.4322V30.4642C19.7908 30.4642 20.0999 30.7738 20.0999 31.1522C20.0999 31.5306 19.7908 31.8402 19.413 31.8402H18.726C18.3482 31.8402 18.039 31.5306 18.039 31.1522V29.4322C18.039 28.1508 18.9149 27.0715 20.0999 26.7662V24.3109C19.8423 24.2851 19.5804 24.2722 19.3142 24.2722H15.3899C15.1237 24.2722 14.8618 24.2851 14.6041 24.3109V27.1231C15.596 27.4198 16.3216 28.34 16.3216 29.4322C16.3216 30.7609 15.2439 31.8402 13.9172 31.8402C12.5904 31.8402 11.5127 30.7609 11.5127 29.4322C11.5127 28.34 12.2384 27.4198 13.2302 27.1231V24.5818ZM13.9172 30.4642C14.1905 30.4642 14.4526 30.3555 14.6458 30.1619C14.8391 29.9684 14.9476 29.7059 14.9476 29.4322C14.9476 29.1585 14.8391 28.896 14.6458 28.7025C14.4526 28.5089 14.1905 28.4002 13.9172 28.4002C13.6439 28.4002 13.3818 28.5089 13.1885 28.7025C12.9953 28.896 12.8867 29.1585 12.8867 29.4322C12.8867 29.7059 12.9953 29.9684 13.1885 30.1619C13.3818 30.3555 13.6439 30.4642 13.9172 30.4642Z" fill="#4A0F4F"/>
<rect x="28.6" y="37.1" width="3.8" height="3.8" rx="0.9" stroke="#4A0F4F" stroke-width="0.2"/>
<path d="M30.1 38.3072L31.3 39L30.1 39.6928V38.3072Z" stroke="#4A0F4F" stroke-width="0.2"/>
</svg>
