<svg width="61" height="56" viewBox="0 0 61 56" fill="none" xmlns="http://www.w3.org/2000/svg">
<path fill-rule="evenodd" clip-rule="evenodd" d="M49.6051 21.3025C49.6051 23.4162 48.8907 26.0323 47.6659 28.9335C46.4482 31.8182 44.7601 34.906 42.8898 37.9398C39.15 44.0063 34.7299 49.7802 32.028 53.1617C31.1278 54.2794 29.4773 54.2794 28.5771 53.1617C25.8752 49.7802 21.4551 44.0063 17.7153 37.9398C15.845 34.906 14.1569 31.8182 12.9391 28.9335C11.7144 26.0323 11 23.4162 11 21.3025C11 10.6461 19.6461 2 30.3025 2C40.9589 2 49.6051 10.6461 49.6051 21.3025ZM32.8086 53.7866C38.2332 46.9979 50.6051 30.5444 50.6051 21.3025C50.6051 10.0938 41.5112 1 30.3025 1C19.0938 1 10 10.0938 10 21.3025C10 30.5444 22.3719 46.9979 27.7964 53.7866C29.0971 55.4045 31.508 55.4045 32.8086 53.7866Z" fill="#4A0F4F"/>
<circle cx="30.3008" cy="20.5" r="9.19922" stroke="#4A0F4F"/>
<path d="M36.4984 19.9331L36.4953 19.9606V19.9883C36.4953 20.126 36.3757 20.2406 36.2453 20.2406H35.4953H34.9931L34.9953 20.7428L35.0117 24.4953C35.0117 24.4956 35.0117 24.496 35.0117 24.4963C35.0117 24.5351 35.0088 24.5787 35.0031 24.6299L35 24.6575V24.6852V25.0625C35 25.3043 34.8043 25.5 34.5625 25.5H34.1875C34.1737 25.5 34.1665 25.5 34.1602 25.4998C34.157 25.4998 34.1553 25.4997 34.1548 25.4997L34.1546 25.4996L34.115 25.496L34.0745 25.4989C34.0625 25.4998 34.0475 25.5 34.0117 25.5H33.25H32.6875C32.4457 25.5 32.25 25.3043 32.25 25.0625V24.5V23C32.25 22.309 31.691 21.75 31 21.75H29.5C28.809 21.75 28.25 22.309 28.25 23V24.5V25.0625C28.25 25.3043 28.0543 25.5 27.8125 25.5H27.25H26.5023C26.4866 25.5 26.4681 25.499 26.4301 25.4964L26.3927 25.4939L26.3553 25.497C26.3237 25.4997 26.3163 25.5 26.3125 25.5H25.9375C25.6957 25.5 25.5 25.3043 25.5 25.0625V22.4375L25.5 22.4246L25.5001 22.4198L25.5023 22.3996V22.3719V20.7406V20.2406H25.0023H24.25C24.1053 20.2406 24 20.1374 24 19.9883C24 19.9092 24.019 19.8522 24.0781 19.7895L30.0723 14.5644L30.0852 14.5532L30.0973 14.5411C30.1164 14.522 30.1304 14.5156 30.1452 14.5111C30.1661 14.5049 30.1988 14.5 30.2594 14.5C30.2954 14.5 30.333 14.5054 30.3661 14.5156C30.3963 14.525 30.4164 14.5364 30.4285 14.5458L36.4074 19.8013L36.4082 19.8021C36.4632 19.8502 36.4849 19.8848 36.4928 19.9017C36.4987 19.9144 36.4996 19.9216 36.4984 19.9331Z" fill="#4A0F4F" stroke="#4A0F4F"/>
</svg>
