<svg width="61" height="56" viewBox="0 0 61 56" fill="none" xmlns="http://www.w3.org/2000/svg">
<path d="M33.099 3.61667H26.869C26.1773 3.61667 25.6167 4.17734 25.6167 4.86896C25.6167 5.69175 26.3966 6.29097 27.1916 6.07896L27.4616 6.00698C27.5204 5.99128 27.5811 5.98333 27.642 5.98333H30H31.8482C31.9239 5.98333 31.9994 5.99081 32.0737 6.00567L32.8471 6.16035C33.6419 6.3193 34.3833 5.71144 34.3833 4.90098C34.3833 4.19167 33.8083 3.61667 33.099 3.61667Z" stroke="#4A0F4F" stroke-width="0.766667"/>
<path d="M18.4237 48.1031L18.08 47.9333L17.9102 48.277L16.1973 51.7447C15.916 52.3142 16.1496 53.0038 16.7191 53.2851C17.2885 53.5664 17.9782 53.3328 18.2594 52.7633L19.9724 49.2956L20.1421 48.9519L19.7984 48.7822L18.4237 48.1031Z" stroke="#4A0F4F" stroke-width="0.766667"/>
<path d="M41.5614 48.0364L41.8858 47.8322L42.09 48.1566L44.2546 51.5948C44.593 52.1323 44.4316 52.8423 43.8941 53.1807C43.3566 53.5191 42.6466 53.3577 42.3082 52.8202L40.1436 49.382L39.9394 49.0576L40.2638 48.8534L41.5614 48.0364Z" stroke="#4A0F4F" stroke-width="0.766667"/>
<circle cx="30" cy="28.5444" r="22.6167" stroke="#4A0F4F" stroke-width="0.766667"/>
<circle cx="29.9997" cy="28.5442" r="19.55" stroke="#4A0F4F" stroke-width="0.766667"/>
<rect x="44.5486" y="10.4021" width="1.10608" height="0.427253" transform="rotate(40.22 44.5486 10.4021)" stroke="#4A0F4F" stroke-width="0.427253"/>
<mask id="path-7-outside-1_1242_259" maskUnits="userSpaceOnUse" x="41.9856" y="4.13514" width="9.33719" height="8.98365" fill="black">
<rect fill="white" x="41.9856" y="4.13514" width="9.33719" height="8.98365"/>
<path d="M48.035 11.8465C48.2951 11.539 48.492 11.1833 48.6146 10.7997C48.7372 10.416 48.783 10.012 48.7494 9.61073C48.7159 9.20941 48.6036 8.81863 48.419 8.4607C48.2344 8.10277 47.9812 7.7847 47.6736 7.52465C47.3661 7.26461 47.0104 7.06768 46.6268 6.9451C46.2432 6.82253 45.8392 6.77671 45.4379 6.81027C45.0366 6.84383 44.6458 6.95611 44.2879 7.14069C43.9299 7.32527 43.6119 7.57855 43.3518 7.88605L45.6934 9.86627L48.035 11.8465Z"/>
</mask>
<path d="M48.035 11.8465C48.2951 11.539 48.492 11.1833 48.6146 10.7997C48.7372 10.416 48.783 10.012 48.7494 9.61073C48.7159 9.20941 48.6036 8.81863 48.419 8.4607C48.2344 8.10277 47.9812 7.7847 47.6736 7.52465C47.3661 7.26461 47.0104 7.06768 46.6268 6.9451C46.2432 6.82253 45.8392 6.77671 45.4379 6.81027C45.0366 6.84383 44.6458 6.95611 44.2879 7.14069C43.9299 7.32527 43.6119 7.57855 43.3518 7.88605L45.6934 9.86627L48.035 11.8465Z" stroke="#4A0F4F" stroke-width="1.53333" mask="url(#path-7-outside-1_1242_259)"/>
<path d="M48.8161 7.28596C48.8858 7.20905 48.9392 7.11878 48.973 7.02062C49.0068 6.92246 49.0203 6.81846 49.0127 6.71493C49.0051 6.6114 48.9765 6.51049 48.9288 6.41832C48.881 6.32615 48.815 6.24464 48.7348 6.17873C48.6546 6.11282 48.5618 6.06389 48.4622 6.0349C48.3625 6.00591 48.2579 5.99746 48.1549 6.01007C48.0519 6.02269 47.9525 6.0561 47.8627 6.10828C47.773 6.16045 47.6948 6.23032 47.6328 6.31362L47.9293 6.49589C48.1658 6.64125 48.3814 6.81803 48.5703 7.0214L48.8161 7.28596Z" fill="#4A0F4F"/>
<mask id="path-9-outside-2_1242_259" maskUnits="userSpaceOnUse" x="41.9856" y="4.13514" width="9.33719" height="8.98365" fill="black">
<rect fill="white" x="41.9856" y="4.13514" width="9.33719" height="8.98365"/>
<path d="M48.035 11.8465C48.2951 11.539 48.492 11.1833 48.6146 10.7997C48.7372 10.416 48.783 10.012 48.7494 9.61073C48.7159 9.20941 48.6036 8.81863 48.419 8.4607C48.2344 8.10277 47.9812 7.7847 47.6736 7.52465C47.3661 7.26461 47.0104 7.06768 46.6268 6.9451C46.2432 6.82253 45.8392 6.77671 45.4379 6.81027C45.0366 6.84383 44.6458 6.95611 44.2879 7.14069C43.9299 7.32527 43.6119 7.57855 43.3518 7.88605L45.6934 9.86627L48.035 11.8465Z"/>
</mask>
<path d="M48.035 11.8465C48.2951 11.539 48.492 11.1833 48.6146 10.7997C48.7372 10.416 48.783 10.012 48.7494 9.61073C48.7159 9.20941 48.6036 8.81863 48.419 8.4607C48.2344 8.10277 47.9812 7.7847 47.6736 7.52465C47.3661 7.26461 47.0104 7.06768 46.6268 6.9451C46.2432 6.82253 45.8392 6.77671 45.4379 6.81027C45.0366 6.84383 44.6458 6.95611 44.2879 7.14069C43.9299 7.32527 43.6119 7.57855 43.3518 7.88605L45.6934 9.86627L48.035 11.8465Z" stroke="#4A0F4F" stroke-width="1.53333" mask="url(#path-9-outside-2_1242_259)"/>
<rect x="-0.0251749" y="0.301062" width="1.10608" height="0.427253" transform="matrix(-0.76357 0.645725 0.645725 0.76357 15.3198 10.1885)" stroke="#4A0F4F" stroke-width="0.427253"/>
<mask id="path-11-outside-3_1242_259" maskUnits="userSpaceOnUse" x="8.75928" y="4.13514" width="9.33719" height="8.98365" fill="black">
<rect fill="white" x="8.75928" y="4.13514" width="9.33719" height="8.98365"/>
<path d="M12.047 11.8465C11.7869 11.539 11.59 11.1833 11.4674 10.7997C11.3449 10.416 11.299 10.012 11.3326 9.61073C11.3662 9.20941 11.4784 8.81863 11.663 8.4607C11.8476 8.10277 12.1009 7.7847 12.4084 7.52465C12.7159 7.26461 13.0716 7.06768 13.4552 6.9451C13.8388 6.82253 14.2428 6.77671 14.6441 6.81027C15.0455 6.84383 15.4362 6.95611 15.7942 7.14069C16.1521 7.32527 16.4702 7.57855 16.7302 7.88605L14.3886 9.86627L12.047 11.8465Z"/>
</mask>
<path d="M12.047 11.8465C11.7869 11.539 11.59 11.1833 11.4674 10.7997C11.3449 10.416 11.299 10.012 11.3326 9.61073C11.3662 9.20941 11.4784 8.81863 11.663 8.4607C11.8476 8.10277 12.1009 7.7847 12.4084 7.52465C12.7159 7.26461 13.0716 7.06768 13.4552 6.9451C13.8388 6.82253 14.2428 6.77671 14.6441 6.81027C15.0455 6.84383 15.4362 6.95611 15.7942 7.14069C16.1521 7.32527 16.4702 7.57855 16.7302 7.88605L14.3886 9.86627L12.047 11.8465Z" stroke="#4A0F4F" stroke-width="1.53333" mask="url(#path-11-outside-3_1242_259)"/>
<path d="M11.2659 7.28596C11.1962 7.20905 11.1429 7.11878 11.1091 7.02062C11.0753 6.92246 11.0618 6.81846 11.0694 6.71493C11.077 6.6114 11.1055 6.51049 11.1533 6.41832C11.201 6.32615 11.267 6.24464 11.3472 6.17873C11.4274 6.11282 11.5202 6.06389 11.6199 6.0349C11.7196 6.00591 11.8241 5.99746 11.9271 6.01007C12.0302 6.02269 12.1296 6.0561 12.2193 6.10828C12.3091 6.16045 12.3873 6.23032 12.4492 6.31362L12.1527 6.49589C11.9162 6.64125 11.7006 6.81803 11.5117 7.0214L11.2659 7.28596Z" fill="#4A0F4F"/>
<mask id="path-13-outside-4_1242_259" maskUnits="userSpaceOnUse" x="8.75928" y="4.13514" width="9.33719" height="8.98365" fill="black">
<rect fill="white" x="8.75928" y="4.13514" width="9.33719" height="8.98365"/>
<path d="M12.047 11.8465C11.7869 11.539 11.59 11.1833 11.4674 10.7997C11.3449 10.416 11.299 10.012 11.3326 9.61073C11.3662 9.20941 11.4784 8.81863 11.663 8.4607C11.8476 8.10277 12.1009 7.7847 12.4084 7.52465C12.7159 7.26461 13.0716 7.06768 13.4552 6.9451C13.8388 6.82253 14.2428 6.77671 14.6441 6.81027C15.0455 6.84383 15.4362 6.95611 15.7942 7.14069C16.1521 7.32527 16.4702 7.57855 16.7302 7.88605L14.3886 9.86627L12.047 11.8465Z"/>
</mask>
<path d="M12.047 11.8465C11.7869 11.539 11.59 11.1833 11.4674 10.7997C11.3449 10.416 11.299 10.012 11.3326 9.61073C11.3662 9.20941 11.4784 8.81863 11.663 8.4607C11.8476 8.10277 12.1009 7.7847 12.4084 7.52465C12.7159 7.26461 13.0716 7.06768 13.4552 6.9451C13.8388 6.82253 14.2428 6.77671 14.6441 6.81027C15.0455 6.84383 15.4362 6.95611 15.7942 7.14069C16.1521 7.32527 16.4702 7.57855 16.7302 7.88605L14.3886 9.86627L12.047 11.8465Z" stroke="#4A0F4F" stroke-width="1.53333" mask="url(#path-13-outside-4_1242_259)"/>
<circle cx="29.9971" cy="28.5445" r="0.766667" fill="#4A0F4F"/>
<path d="M22.4906 25.7668C22.5476 25.6073 22.723 25.5242 22.8825 25.5812L29.1149 27.8074V27.8074C28.931 28.0434 28.8239 28.3301 28.8078 28.6289L28.8054 28.6738L22.5731 26.4476C22.4136 26.3906 22.3305 26.2151 22.3874 26.0556L22.4906 25.7668Z" fill="#4A0F4F"/>
<path d="M38.8349 22.2535C38.7384 22.1143 38.5473 22.0797 38.4081 22.1762L30.5867 27.5998V27.5998C30.8518 27.754 31.0392 28.0135 31.1021 28.3137L31.1109 28.3558L38.9324 22.9322C39.0716 22.8357 39.1062 22.6447 39.0097 22.5055L38.8349 22.2535Z" fill="#4A0F4F"/>
<path d="M29.8438 9.8374H30.1504V11.3707H29.8438V9.8374Z" fill="#4A0F4F"/>
<rect x="20.9648" y="12.1216" width="0.306667" height="1.5362" transform="rotate(-30 20.9648 12.1216)" fill="#4A0F4F"/>
<rect x="14.2227" y="18.7046" width="0.306667" height="1.536" transform="rotate(-60 14.2227 18.7046)" fill="#4A0F4F"/>
<rect x="11.6016" y="28.8516" width="0.306667" height="1.53348" transform="rotate(-90 11.6016 28.8516)" fill="#4A0F4F"/>
<path d="M29.8438 47.2515H30.1504V45.7181H29.8438V47.2515Z" fill="#4A0F4F"/>
<rect width="0.306667" height="1.53126" transform="matrix(0.866025 0.5 0.5 -0.866025 21.1289 44.9971)" fill="#4A0F4F"/>
<rect width="0.306667" height="1.53797" transform="matrix(0.5 0.866025 0.866025 -0.5 14.3164 38.6377)" fill="#4A0F4F"/>
<rect width="0.306667" height="1.5362" transform="matrix(-0.866025 -0.5 -0.5 0.866025 39.0234 12.1216)" fill="#4A0F4F"/>
<rect width="0.306667" height="1.536" transform="matrix(-0.5 -0.866025 -0.866025 0.5 45.7734 18.7046)" fill="#4A0F4F"/>
<rect width="0.306667" height="1.53348" transform="matrix(0 -1 -1 0 48.3945 28.8516)" fill="#4A0F4F"/>
<rect width="0.306667" height="1.53348" transform="matrix(0 -1 -1 0 48.3945 28.8516)" fill="#4A0F4F"/>
<rect x="38.8633" y="44.9971" width="0.306667" height="1.53126" transform="rotate(150 38.8633 44.9971)" fill="#4A0F4F"/>
<rect x="45.6719" y="38.6377" width="0.306667" height="1.53797" transform="rotate(120 45.6719 38.6377)" fill="#4A0F4F"/>
</svg>
