<svg width="61" height="55" viewBox="0 0 61 55" fill="none" xmlns="http://www.w3.org/2000/svg">
<path d="M3.34866 18.4263L3.22567 18.3679C7.36482 9.65133 14.4947 3.88681 23.5842 1.91421C26.6432 1.25022 28.2376 0.912626 29.7462 0.868781C31.2566 0.824883 32.6776 1.0755 35.3881 1.57227C47.473 3.7861 56.9494 13.1234 59.5831 25.4069C62.3987 38.5342 54.2024 50.949 40.9584 53.6253C38.3685 54.1487 36.3571 54.2758 34.6356 53.9376C32.9098 53.5986 31.4867 52.7944 30.0701 51.4764C29.1187 50.5914 28.5717 49.9553 28.2731 48.9378C27.9786 47.9341 27.9284 46.5657 27.9284 44.2265V39.1641H23.4482C17.9971 39.1641 14.7313 37.7359 13.0776 34.5375C11.491 31.4691 11.8347 27.4055 13.5016 23.6438C15.1698 19.8791 18.1737 16.3904 21.9503 14.464C23.7322 13.5545 26.676 13.0435 29.6318 12.9533C32.5881 12.863 35.5896 13.1926 37.4886 13.9881L37.4405 14.1029L37.4886 13.9881C43.9336 16.6892 48.2575 23.2101 48.2575 30.2265C48.2575 33.7898 47.1238 36.7884 45.1421 38.8973C43.1597 41.0069 40.3379 42.2162 36.9827 42.2162C36.1294 42.2162 35.4854 42.2226 34.9969 42.2633C34.5053 42.3042 34.1914 42.3788 33.9856 42.5018C33.7906 42.6183 33.6805 42.7858 33.6178 43.0548C33.5529 43.3327 33.5418 43.7048 33.5418 44.2165C33.5418 45.607 33.8558 46.5526 34.5203 47.1554C35.1881 47.7612 36.2393 48.0481 37.7793 48.0481C40.4751 48.0481 43.4002 46.9781 46.0234 45.1878C48.6457 43.3981 50.9569 40.8948 52.4274 38.0424C53.5524 35.859 54.0535 32.842 53.9449 29.7108C53.8363 26.5811 53.1191 23.3525 51.8222 20.7502C45.5319 8.12705 31.5118 3.46486 18.9214 9.80825L18.9214 9.80826C17.0743 10.7386 15.0215 12.3302 13.182 14.1697C11.3426 16.009 9.72464 18.0882 8.74209 19.9882L8.62115 19.9257L8.74209 19.9882C7.79778 21.8141 7.08096 24.3629 6.71122 26.858C6.34108 29.3557 6.32206 31.7775 6.75709 33.353L6.62584 33.3892L6.75709 33.353C7.58837 36.3642 9.35503 39.087 11.5422 41.0562C13.7305 43.0264 16.329 44.233 18.8213 44.233C19.6204 44.233 20.2388 44.3267 20.6622 44.5273C20.8756 44.6284 21.0448 44.7592 21.1604 44.9237C21.2769 45.0895 21.3335 45.2816 21.3335 45.4946C21.3335 45.7121 21.2639 45.8991 21.1268 46.0473C20.9921 46.1927 20.8013 46.2912 20.5733 46.3524C20.1202 46.4741 19.4827 46.4587 18.7175 46.3283C17.182 46.0666 15.0723 45.3308 12.7508 44.1876C10.3456 43.0035 8.57784 41.3324 6.97242 38.7348C5.96377 37.103 5.38223 35.9938 5.06434 34.6929C4.74721 33.3952 4.6947 31.9154 4.72483 29.5472C4.84452 20.1775 9.84745 12.2075 18.3425 7.8472L18.4036 7.96637L18.3425 7.84719C21.1674 6.39744 24.9639 5.55953 28.8161 5.37149C32.6687 5.18344 36.5914 5.64465 39.6701 6.80551C45.6691 9.06759 50.5338 13.5755 53.3534 19.4832C54.325 21.5189 54.9062 22.9662 55.2427 24.5242C55.579 26.0813 55.6695 27.742 55.6695 30.2021C55.6695 33.4743 55.3629 35.931 54.5343 38.1118C53.7054 40.2936 52.3582 42.1881 50.2951 44.3427C46.99 47.7955 42.2949 49.8089 37.5052 49.8297C36.3921 49.8344 35.4904 49.791 34.7599 49.6608C34.0287 49.5306 33.4601 49.312 33.0204 48.9599C32.1391 48.2542 31.8216 47.0494 31.6593 45.133C31.5774 44.1691 31.5616 43.39 31.6553 42.7653C31.7493 42.1381 31.9553 41.6557 32.3251 41.2978C32.6933 40.9415 33.2086 40.7235 33.8915 40.5932C34.5741 40.4629 35.4374 40.4179 36.5142 40.4179C38.1149 40.4179 39.142 40.3226 40.0532 39.9732C40.964 39.624 41.7718 39.016 42.9224 37.9616C45.8709 35.2593 46.8744 31.3829 46.1434 27.5004C45.4122 23.6168 42.945 19.7313 38.9574 17.0321C37.0057 15.7109 34.0943 14.9379 31.1202 14.7748C28.1465 14.6118 25.1344 15.0598 22.9836 16.1571C18.2451 18.5748 15.19 23.1166 14.3192 27.3471C13.884 29.4618 13.9964 31.4893 14.7069 33.1312C15.4157 34.7691 16.7224 36.0312 18.6969 36.6206L3.34866 18.4263ZM3.34866 18.4263L3.22566 18.3679C2.19464 20.5396 1.60017 21.9945 1.26642 23.6209C0.933055 25.2455 0.861246 27.0345 0.863917 29.8718C0.866967 32.7409 0.929863 34.4799 1.23355 35.9028C1.53848 37.3316 2.08473 38.4355 3.03784 40.0376C4.89566 43.1606 6.97331 45.478 9.50658 47.1356C12.0397 48.7931 15.0201 49.7853 18.6752 50.2703C20.3399 50.4911 21.3825 50.5674 22.1906 50.3999C23.0111 50.2297 23.5781 49.8111 24.3007 49.0886C24.9454 48.4439 25.3604 47.8281 25.588 47.0626C25.8144 46.301 25.8518 45.4025 25.7624 44.1988L25.6271 44.2089L25.7624 44.1988L25.5297 41.0696L25.5206 40.9472L25.3979 40.9436L21.1997 40.8223C16.524 40.6872 13.1905 38.7135 11.4972 35.5376C9.80099 32.356 9.7346 27.9381 11.6631 22.8882C12.4214 20.9032 14.057 18.6459 16.0384 16.6608C18.0194 14.6763 20.3331 12.9767 22.4363 12.0983L22.4363 12.0983C24.3709 11.2898 27.384 10.9144 30.4077 10.9646C33.4313 11.0147 36.4376 11.4898 38.3586 12.3622C43.2948 14.6042 47.0098 18.7603 48.9094 23.3889C50.8093 28.0182 50.8887 33.1066 48.5765 37.22L48.6846 37.2808L48.5765 37.2201C47.5472 39.0516 45.7944 40.8076 43.873 42.1057C41.9491 43.4056 39.8764 44.233 38.2127 44.233C37.3434 44.233 36.6896 44.3223 36.2487 44.5227C36.0261 44.624 35.8517 44.7562 35.7334 44.9252C35.6143 45.0953 35.5586 45.2932 35.5586 45.5137C35.5586 45.8636 35.5776 46.1682 35.7052 46.3826C35.8459 46.619 36.0942 46.7151 36.4525 46.7143C36.8065 46.7136 37.3021 46.6194 37.9907 46.4402C38.6824 46.2602 39.581 45.9909 40.7463 45.6331C42.9288 44.9634 44.5255 44.2509 45.9211 43.1944C47.316 42.1384 48.5016 40.7451 49.8715 38.7267L49.7588 38.6503L49.8715 38.7267C50.7023 37.5022 51.2015 36.552 51.489 35.3274C51.7753 34.1083 51.8498 32.6245 51.8468 30.337C51.838 23.964 49.6338 18.6145 45.8063 14.866C41.979 11.1177 36.5385 8.97999 30.0744 9.01181C26.713 9.02864 24.1563 9.37952 21.8255 10.3039C19.4947 11.2282 17.4006 12.7218 14.9574 15.007C10.4719 19.2022 8.48657 23.8786 8.47889 30.253C8.47467 33.9755 9.53228 36.9536 11.5601 39.06C13.5875 41.166 16.5688 42.3843 20.3801 42.6188C21.1444 42.6659 21.7403 42.7168 22.2087 42.7919C22.6781 42.8672 23.0087 42.9652 23.2479 43.1005C23.7064 43.3599 23.8635 43.7757 23.9647 44.5986L24.0998 44.582L23.9647 44.5987C24.1446 46.0593 23.6998 47.1579 22.7839 47.8292C21.8605 48.506 20.4315 48.7685 18.6069 48.4884C8.24651 46.8978 1.37962 37.9454 2.58048 27.5983C4.37636 12.1257 19.4728 0.639287 34.4305 3.35171C46.749 5.58542 55.7757 14.7654 57.9019 27.224C59.7852 38.2566 52.4747 48.9234 41.2032 51.5692C36.4457 52.686 32.9251 52.0574 31.1001 49.8584L31.1 49.8583C30.9776 49.7109 30.8405 49.4345 30.7003 49.0455C30.5617 48.6606 30.4247 48.179 30.2973 47.6326C30.0427 46.5401 29.8287 45.197 29.7171 43.8687C29.7171 43.8687 29.7171 43.8686 29.7171 43.8686L29.3228 39.1641H32.8403C36.5209 39.1641 39.3681 38.3741 41.2974 36.8249C43.2318 35.2718 44.2242 32.9712 44.2242 29.9968C44.2242 22.8481 38.8356 17.4702 31.1577 16.9148C27.3702 16.6406 24.1326 17.4682 21.637 19.2763C19.1411 21.0848 17.4 23.865 16.5893 27.4727L16.6967 27.4968L16.5893 27.4727C15.9539 30.3008 16.1787 32.4095 17.3075 33.7297C18.4381 35.052 20.4338 35.5353 23.2188 35.2169C24.2155 35.103 24.8363 34.9599 25.2296 34.3687C25.4212 34.0808 25.5523 33.6963 25.6601 33.1824C25.7682 32.6674 25.8552 32.01 25.9519 31.1691C26.1881 29.1121 26.5765 27.855 27.2914 27.1407C27.9978 26.4348 29.0551 26.23 30.7233 26.3746C31.5788 26.4492 32.191 26.6417 32.695 27.0324C33.2016 27.4252 33.6137 28.0295 34.0452 28.9585C34.3844 29.6886 34.7 30.2597 34.9842 30.6664C35.1263 30.8697 35.2625 31.0348 35.3921 31.1587C35.5203 31.2813 35.6495 31.3708 35.7785 31.4114C35.9133 31.4539 36.0475 31.4423 36.1651 31.3636C36.2762 31.2894 36.3569 31.1656 36.4165 31.0151C36.5355 30.7146 36.5939 30.2466 36.5939 29.6229C36.5939 28.3503 35.7389 26.9796 34.5595 25.9353C33.3778 24.8889 31.8376 24.1403 30.42 24.1403C28.4969 24.1403 26.9486 24.6617 25.8462 25.6695C24.7434 26.6776 24.1032 28.1573 23.9671 30.0412C23.9178 30.7229 23.8612 31.2644 23.7817 31.6971C23.7021 32.1304 23.6011 32.4464 23.4672 32.6815C23.2093 33.1348 22.8131 33.3172 22.09 33.42C20.5749 33.6348 19.5524 33.1586 18.9497 32.2902C18.3394 31.411 18.1411 30.104 18.3434 28.6293C18.7478 25.6816 20.7421 22.15 24.015 20.2735C31.7733 15.8262 41.2285 20.5484 42.2214 29.3604L3.34866 18.4263Z" fill="#4A0F4F" stroke="#4A0F4F" stroke-width="0.272308"/>
</svg>
