<svg width="284" height="256" viewBox="0 0 284 256" fill="none" xmlns="http://www.w3.org/2000/svg">
<path fill-rule="evenodd" clip-rule="evenodd" d="M108.849 5.04113C65.3038 14.4915 31.1462 42.1008 11.3054 83.8838C1.38868 104.772 -0.0253706 111.662 0.000339462 138.978C0.0297223 166.616 1.21973 172.192 10.3725 187.577C28.1822 217.515 50.1202 231.869 85.1666 236.519C101.224 238.649 104.805 237.907 111.696 231.017C117.796 224.916 119.398 219.524 118.542 207.992L117.422 192.929L97.2136 192.345C51.8281 191.034 32.0644 153.967 50.7152 105.128C58.105 85.7827 82.4781 61.3616 102.932 52.8184C121.8 44.9326 161.367 45.5901 180.099 54.0965C227.945 75.8291 252.083 134.643 229.583 174.671C219.553 192.521 195.514 208.763 179.126 208.763C170.799 208.763 167.005 210.489 167.005 214.272C167.005 221.115 168.687 221.111 191.129 214.221C212.064 207.797 221.551 200.613 234.703 181.234C242.655 169.514 244.128 163.241 244.099 141.218C244.014 80.1742 201.886 38.9164 139.955 39.2212C107.678 39.3829 91.0909 45.961 67.6324 67.903C46.1792 87.9681 36.6922 110.303 36.6555 140.814C36.6151 176.401 56.8672 197.439 93.3277 199.683C108.052 200.591 110.212 201.814 111.192 209.788C112.97 224.218 102.403 231.965 84.6524 229.239C34.4371 221.53 1.13525 178.12 6.95674 127.959C15.643 53.1195 88.6485 -2.45161 161.037 10.6754C220.607 21.4774 264.266 65.8829 274.547 126.122C283.674 179.589 248.245 231.248 193.67 244.06C170.7 249.451 153.416 246.487 144.384 235.604C141.718 232.394 138.658 219.256 137.578 206.408L135.621 183.052H153.265C188.539 183.052 207.407 167.902 207.407 139.58C207.407 105.554 181.778 79.9134 145.119 77.2616C108.901 74.6391 83.4257 93.0992 75.6796 127.573C69.59 154.679 80.2119 167.105 106.877 164.056C116.522 162.954 117.594 161.342 119.456 145.148C121.73 125.344 126.986 120.091 143.132 121.491C151.509 122.222 155.472 125.292 159.66 134.306C166.157 148.292 170.678 149.717 170.678 137.78C170.678 126.067 154.841 112.044 141.615 112.044C123.335 112.044 112.5 121.95 111.207 139.841C110.256 152.993 108.717 155.697 101.61 156.707C71.6395 160.956 78.5628 110.494 110.458 92.2067C148.204 70.5695 194.24 93.5473 199.073 136.443C201.681 159.557 191.213 169.999 161.753 173.679C149.284 175.236 139.007 174.888 136.954 172.834C135.026 170.906 133.975 162.914 134.618 155.072C136.113 136.84 146.25 135.077 147.954 152.751C148.994 163.505 150.279 164.688 160.912 164.688C178.814 164.688 189.042 155.755 189.042 140.12C189.042 96.1954 129.634 75.8034 103.105 110.626C93.493 123.243 89.3243 140.123 95.3845 141.879C97.4046 142.463 99.6377 139.18 100.347 134.581C104.229 109.355 131.235 94.6087 155.652 104.379C178.347 113.458 190.508 145.023 174.593 153.541C163.612 159.417 155.987 158.088 155.987 150.297C155.987 137.005 151.697 131.632 141.086 131.632C130.949 131.632 130.611 132.252 129.542 152.751L128.44 173.87L113.749 175.079C105.669 175.743 92.7327 174.399 84.9977 172.092C46.2196 160.515 59.5301 95.8428 105.522 72.3766C126.501 61.6737 164.023 63.7306 183.078 76.6298C221.738 102.799 231.009 152.035 202.239 178.403C191.14 188.573 186.383 190.398 170.95 190.398C150.253 190.398 146.661 193.873 148.233 212.384C149.798 230.855 154.33 234.484 175.717 234.392C198.596 234.293 221.026 224.674 236.812 208.182C256.605 187.511 262.5 171.997 262.5 140.568C262.5 116.903 260.755 108.823 251.415 89.2536C237.914 60.9649 214.624 39.3865 185.909 28.5588C156.483 17.4629 110.759 19.696 83.7783 33.5429C43.0977 54.4234 19.158 92.5703 18.585 137.424C18.2949 160.229 19.6097 165.61 29.3061 181.297C36.9787 193.711 45.4006 201.663 56.8525 207.301C79.1394 218.276 97.2209 221.357 97.2209 214.18C97.2209 210.566 93.4159 208.763 85.7836 208.763C61.3775 208.763 35.1533 185.153 27.0803 155.91C22.8198 140.48 27.5064 108.849 36.6849 91.1011C46.2233 72.6558 68.0254 50.8534 85.971 41.8143C146.9 11.1161 214.782 33.6898 245.222 94.7777C257.806 120.029 259.099 157.324 248.131 178.608C233.866 206.28 203.323 227.127 177.04 227.127C162.102 227.127 155.987 221.581 155.987 208.028C155.987 198.229 156.795 197.744 173.205 197.744C205.177 197.744 226.821 174.711 226.821 140.685C226.821 107.174 206.165 76.0238 175.387 63.1245C157.36 55.573 118.039 56.7704 101.144 65.3944C65.0908 83.7847 43.6927 132.076 58.7184 161.136C66.5122 176.21 81.9161 183.052 108.056 183.052H130.277V208.076C130.277 230.646 131.265 234.018 140.377 242.495C153.875 255.053 167.351 257.701 192.212 252.676C255.609 239.865 294.828 180.452 281.352 117.623C268.729 58.7464 223.314 14.0067 165.411 3.39934C139.279 -1.39013 138.342 -1.36075 108.849 5.04113Z" fill="black"/>
</svg>
