<?xml version="1.0" standalone="no"?>
<!DOCTYPE svg PUBLIC "-//W3C//DTD SVG 20010904//EN"
 "http://www.w3.org/TR/2001/REC-SVG-20010904/DTD/svg10.dtd">
<svg version="1.0" xmlns="http://www.w3.org/2000/svg"
 width="236.000000pt" height="236.000000pt" viewBox="0 0 236.000000 236.000000"
 preserveAspectRatio="xMidYMid meet">
<metadata>
Created by potrace 1.14, written by Peter Selinger 2001-2017
</metadata>
<g transform="translate(0.000000,236.000000) scale(0.100000,-0.100000)"
fill="#000000" stroke="none">
<path d="M974 1911 c-268 -69 -444 -209 -568 -452 -69 -135 -78 -181 -74 -377
l3 -158 38 -76 c48 -98 153 -213 236 -257 72 -38 193 -70 277 -74 50 -2 68 2
90 19 60 44 67 66 65 190 l-1 61 -102 6 c-124 7 -182 26 -243 79 -68 60 -88
105 -93 215 -7 152 40 271 156 395 52 56 159 129 217 149 63 22 325 19 392 -4
112 -39 235 -141 301 -250 58 -96 76 -160 76 -277 1 -98 -1 -110 -31 -173 -58
-123 -177 -212 -308 -232 -62 -9 -70 -13 -73 -34 -6 -41 10 -44 94 -21 175 49
268 120 336 257 29 59 31 69 31 180 0 139 -24 241 -80 342 -70 126 -202 226
-353 267 -100 28 -303 26 -395 -3 -184 -58 -367 -257 -405 -440 -18 -86 -8
-257 18 -315 48 -107 151 -172 295 -184 95 -8 117 -22 117 -75 0 -61 -42 -99
-107 -99 -205 0 -413 158 -484 368 -29 86 -32 235 -6 332 96 358 415 610 772
610 434 0 805 -363 809 -790 1 -124 -21 -207 -81 -310 -110 -188 -339 -319
-537 -308 -95 5 -143 29 -167 83 -17 38 -39 179 -39 251 l0 31 108 6 c120 5
180 23 235 68 45 37 64 72 77 141 20 105 -30 250 -113 324 -22 20 -69 50 -105
67 -83 39 -225 49 -314 23 -112 -32 -196 -111 -238 -223 -45 -117 -35 -230 22
-267 49 -32 170 -33 202 -1 8 8 17 38 21 67 16 129 44 168 117 168 58 0 94
-24 122 -78 14 -27 31 -54 40 -61 13 -11 17 -9 26 14 15 39 -2 83 -48 127 -51
49 -72 58 -134 58 -64 0 -123 -30 -150 -76 -10 -16 -22 -61 -27 -98 -6 -38
-14 -73 -20 -79 -5 -5 -29 -10 -52 -10 -164 0 -89 298 98 389 80 39 194 45
278 13 119 -45 210 -163 221 -289 11 -118 -37 -179 -162 -205 -84 -18 -186
-19 -202 -3 -17 17 -15 123 4 160 14 27 17 29 31 15 8 -8 19 -36 24 -62 13
-71 23 -78 96 -72 110 9 160 60 156 162 -9 240 -329 362 -496 190 -47 -48 -80
-118 -81 -169 -1 -34 2 -41 18 -41 14 0 23 15 37 61 20 65 65 120 122 151 48
26 160 24 212 -4 79 -42 135 -122 135 -193 0 -57 -13 -76 -65 -95 -55 -21 -70
-12 -78 46 -3 22 -12 50 -21 63 -17 28 -72 41 -109 27 -22 -9 -26 -17 -31 -73
-4 -35 -7 -88 -9 -118 l-2 -55 -99 -3 c-129 -4 -191 14 -239 67 -20 22 -39 56
-43 76 -31 169 80 372 252 456 60 30 79 34 167 37 169 7 268 -27 368 -127 94
-94 149 -234 134 -340 -9 -71 -60 -165 -108 -204 -63 -51 -78 -57 -179 -64
-79 -5 -96 -10 -116 -31 -23 -22 -24 -29 -19 -91 9 -113 29 -136 120 -147 173
-20 369 78 492 245 78 107 104 342 58 511 -60 218 -256 426 -462 491 -146 45
-362 42 -507 -6 -207 -69 -373 -236 -440 -441 -27 -82 -29 -101 -29 -234 l0
-145 35 -64 c67 -124 149 -190 297 -240 70 -24 113 -27 131 -9 24 24 -4 45
-70 52 -126 15 -247 106 -310 234 -28 57 -34 79 -36 154 -8 179 49 327 176
459 90 95 158 142 260 179 335 122 676 -6 850 -320 41 -74 59 -133 71 -229 26
-207 -41 -369 -202 -488 -103 -76 -210 -109 -300 -93 -58 11 -79 40 -75 104
l3 51 80 6 c90 7 143 22 195 54 148 94 184 318 84 524 -36 74 -152 189 -224
224 -108 50 -281 57 -421 16 -246 -71 -419 -418 -302 -607 55 -89 112 -112
296 -119 l127 -5 0 -135 c0 -148 5 -166 62 -219 62 -59 93 -69 203 -68 177 2
334 70 465 203 129 130 190 282 190 471 0 330 -228 662 -538 782 -187 73 -339
84 -518 39z"/>
</g>
</svg>
